<svg xmlns="http://www.w3.org/2000/svg" width="125" height="47" viewBox="0 0 125 47" fill="none"><g clip-path="url(#clip0_17_230)"><path d="M23.8394 45.5454C35.4096 45.5454 44.7891 36.1612 44.7891 24.5851C44.7891 13.009 35.4096 3.62469 23.8394 3.62469C12.2692 3.62469 2.88965 13.009 2.88965 24.5851C2.88965 36.1612 12.2692 45.5454 23.8394 45.5454Z" fill="black"></path><path d="M24.3866 47H23.1929C23.1423 46.9892 23.0935 46.9693 23.043 46.9693C21.8817 46.944 20.7295 46.8302 19.5827 46.644C16.4023 46.1291 13.4151 45.0738 10.6664 43.3843C6.53605 40.8474 3.56336 37.3239 1.75915 32.8228C0.892267 30.6581 0.381166 28.4031 0.140967 26.0848C-0.0251859 24.4965 -0.048664 22.9118 0.0994288 21.3199C0.258358 19.6196 0.550931 17.9464 1.02772 16.3075C2.1348 12.5021 4.07265 9.19184 6.94601 6.45435C9.56653 3.95898 12.6386 2.23517 16.0844 1.16185C17.9699 0.574603 19.9005 0.215024 21.8709 0.0776979C22.1653 0.0560148 22.4596 0.025297 22.754 0C23.4439 0 24.1338 0 24.8237 0C24.8743 0.0108416 24.923 0.0271039 24.9736 0.0307178C25.3908 0.0614356 25.8062 0.0813118 26.2234 0.11745C28.1522 0.285495 30.0358 0.672177 31.8762 1.27388C35.248 2.37792 38.246 4.11618 40.8015 6.58806C42.7483 8.47268 44.2907 10.65 45.396 13.1237C47.2056 17.173 47.8883 21.4157 47.4837 25.8336C47.3067 27.7689 46.9275 29.6625 46.317 31.5074C45.051 35.3345 42.929 38.596 39.8768 41.2377C37.4459 43.341 34.6719 44.8317 31.6125 45.7948C29.3947 46.4923 27.1228 46.8826 24.7966 46.9584C24.6594 46.9639 24.5221 46.9837 24.3848 46.9982L24.3866 47ZM23.8051 5.81289C23.6787 5.81289 23.5523 5.80747 23.4277 5.81289C23.3211 5.81831 23.2164 5.83276 23.1116 5.84903C21.7011 6.07308 20.5796 6.73623 19.8969 8.02457C19.4526 8.86479 19.337 9.77367 19.449 10.7097C19.5881 11.8697 20.0847 12.84 21.0383 13.5375C22.0984 14.3163 23.2976 14.5548 24.5835 14.3578C25.6852 14.1898 26.6207 13.7001 27.3232 12.8147C27.8777 12.1155 28.1431 11.3041 28.1901 10.4224C28.2605 9.0491 27.8957 7.82942 26.841 6.89162C25.9795 6.12549 24.9465 5.80385 23.8051 5.80747V5.81289ZM17.708 24.7766C17.8597 24.7766 18.0132 24.7802 18.1649 24.7766C18.2643 24.773 18.3636 24.7567 18.4611 24.7405C19.8463 24.511 20.948 23.8514 21.6235 22.5866C22.0587 21.7735 22.1743 20.8917 22.084 19.981C21.9684 18.8101 21.4898 17.8235 20.5435 17.1062C19.4219 16.2569 18.1469 16.0184 16.7797 16.2714C15.6817 16.4738 14.7696 17.0032 14.105 17.9157C13.6066 18.6005 13.3736 19.3811 13.3357 20.2195C13.2779 21.4771 13.5903 22.6137 14.506 23.528C15.3891 24.4116 16.4854 24.7712 17.7098 24.7784L17.708 24.7766ZM7.24942 31.2508C7.26568 32.3314 7.78581 33.5438 9.01028 34.384C10.0289 35.0833 11.1721 35.2947 12.3857 35.1158C13.3501 34.9731 14.2044 34.5828 14.8816 33.8672C16.1856 32.4868 16.4023 30.1829 15.4108 28.5422C14.5024 27.0425 12.7325 26.3324 10.9824 26.5727C8.69965 26.8871 7.25123 28.5766 7.25123 31.249L7.24942 31.2508ZM29.9672 24.8037C30.211 24.7748 30.5379 24.7603 30.854 24.6953C32.2175 24.417 33.2686 23.7051 33.8808 22.4222C34.2493 21.6488 34.345 20.823 34.2601 19.9774C34.1409 18.7848 33.6461 17.7874 32.6744 17.0646C31.6613 16.3111 30.5072 16.0708 29.2701 16.2208C28.3183 16.3364 27.4677 16.7014 26.767 17.37C25.9109 18.1831 25.5407 19.2076 25.5118 20.3677C25.4901 21.2675 25.6707 22.124 26.1746 22.8847C27.0541 24.2092 28.349 24.7387 29.9672 24.8037ZM23.8918 35.1773C24.0887 35.1556 24.3758 35.1429 24.6539 35.0924C25.929 34.8593 26.9602 34.2485 27.6284 33.1065C28.1161 32.2717 28.2587 31.3574 28.1738 30.4034C28.0583 29.1331 27.5255 28.0869 26.4618 27.3551C25.3998 26.6233 24.2133 26.4155 22.9545 26.6305C21.7571 26.8347 20.7764 27.4075 20.101 28.4374C19.5628 29.2578 19.3804 30.1757 19.4328 31.1478C19.4815 32.0676 19.7524 32.9078 20.3466 33.6197C21.2442 34.6966 22.4398 35.1267 23.8918 35.1755V35.1773ZM40.3626 30.8551C40.3626 30.7756 40.3662 30.6961 40.3626 30.6166C40.2886 29.1602 39.6926 27.9947 38.4338 27.2214C37.4315 26.6052 36.3316 26.4408 35.1812 26.6269C34.1391 26.7949 33.2397 27.2503 32.5588 28.0742C31.7082 29.1024 31.4933 30.3058 31.6703 31.5923C31.8527 32.9186 32.5263 33.9305 33.7002 34.5864C34.5581 35.0652 35.4846 35.2333 36.4616 35.1429C38.497 34.955 40.3626 33.5384 40.3644 30.8569L40.3626 30.8551ZM22.8335 20.4815C22.8281 20.561 22.8226 20.6189 22.819 20.6785C22.7919 21.4374 22.6276 22.1638 22.2664 22.836C21.0618 25.0729 18.2155 26.1336 15.8063 25.2103C14.17 24.5833 13.1912 23.3726 12.83 21.6596C12.7596 21.3236 12.6765 20.9911 12.5934 20.6568C12.5519 20.4869 12.42 20.4345 12.2611 20.4418C12.1636 20.4454 12.0679 20.4617 11.9432 20.4743C12.048 22.5794 12.8083 24.3321 14.692 25.3819C16.908 26.616 19.1438 26.5221 21.2315 25.0621C22.7919 23.9707 23.3951 22.3517 23.4746 20.4833H22.8299L22.8335 20.4815ZM18.0999 10.0863C18.0819 10.1278 18.071 10.1387 18.0728 10.1513C18.0909 10.435 18.0963 10.7223 18.1342 11.0042C18.3311 12.5094 18.9993 13.7543 20.2364 14.6524C21.6162 15.6534 23.1712 15.9642 24.84 15.7022C27.4189 15.2975 29.411 13.3984 29.5645 10.3519C29.5717 10.2091 29.5338 10.1043 29.373 10.079C29.1112 10.0375 28.9522 10.0971 28.9197 10.267C28.8836 10.4621 28.8728 10.6609 28.8421 10.8578C28.6272 12.2365 28.0167 13.3857 26.8627 14.2006C25.64 15.0644 24.2693 15.3246 22.8136 15.0481C21.1196 14.7265 19.8752 13.7923 19.1582 12.2022C18.8801 11.5842 18.7591 10.9283 18.7086 10.2561C18.7049 10.1983 18.6544 10.1007 18.6183 10.0971C18.4431 10.0809 18.2661 10.0899 18.1017 10.0899L18.0999 10.0863ZM11.6471 36.5252C11.806 36.5252 11.9667 36.5343 12.1238 36.5234C12.3026 36.5108 12.4796 36.4873 12.6566 36.4566C14.9647 36.041 16.507 34.7472 17.159 32.4705C17.2872 32.0224 17.3233 31.5472 17.3775 31.081C17.401 30.884 17.2981 30.7973 17.1283 30.7991C16.8375 30.8027 16.7454 30.8714 16.7364 31.0792C16.6967 32.0856 16.4258 33.0216 15.8027 33.8203C14.6143 35.3453 13.0232 36.0048 11.1143 35.8874C8.96513 35.7555 7.25123 34.281 6.76902 32.1904C6.68956 31.8489 6.64621 31.5002 6.57939 31.1551C6.51979 30.8443 6.48548 30.819 6.17304 30.8226C6.11344 30.8226 6.04662 30.8081 5.99605 30.8316C5.94548 30.8551 5.87685 30.9147 5.87685 30.9599C5.87324 31.1189 5.8913 31.2779 5.90575 31.4351C6.00327 32.5175 6.34642 33.5095 7.02186 34.366C8.19938 35.8549 9.78867 36.4837 11.6452 36.5252H11.6471ZM18.0746 30.8497C18.0295 32.3567 18.714 34.5141 20.6843 35.7103C22.7432 36.9589 25.501 36.8433 27.4045 35.3851C28.8836 34.2521 29.4886 32.6909 29.5645 30.8732H28.945C28.8078 34.1654 26.3696 35.8874 23.8828 35.8964C22.6655 35.9 21.5512 35.5676 20.5832 34.8159C19.2973 33.8167 18.7663 32.4452 18.6977 30.8515H18.0746V30.8497ZM35.6887 20.4707C35.4683 20.4707 35.3166 20.4743 35.1649 20.4707C35.0529 20.4671 35.0186 20.5159 35.0114 20.6225C34.9951 20.8538 34.9717 21.085 34.9337 21.3127C34.7188 22.5613 34.1752 23.6292 33.1675 24.4206C31.9394 25.3855 30.5307 25.7108 29.01 25.4415C27.0487 25.0946 25.6779 23.9978 25.0585 22.0698C24.8977 21.5711 24.849 21.0363 24.746 20.4996H24.1555C24.1519 20.5556 24.1446 20.5954 24.1483 20.6333C24.1735 20.8845 24.188 21.1356 24.2277 21.385C24.4372 22.7203 24.9953 23.8804 26.0265 24.7712C27.3575 25.9222 28.9215 26.3251 30.6517 26.139C33.0754 25.8788 34.9518 24.2164 35.4864 21.844C35.5857 21.4031 35.6218 20.9459 35.6905 20.4707H35.6887ZM41.7424 30.8714H41.1302C41.1229 30.9653 41.1139 31.0502 41.1085 31.1352C41.0164 32.3892 40.5902 33.5059 39.6854 34.3985C38.5096 35.5585 37.0703 36.0374 35.4394 35.8856C33.7436 35.7284 32.4306 34.9225 31.5746 33.43C31.152 32.6927 30.9497 31.8869 30.8774 31.043C30.8702 30.9563 30.8973 30.8425 30.7492 30.8425C30.5849 30.8425 30.4205 30.8425 30.2219 30.8425C30.2544 31.1569 30.2742 31.446 30.3158 31.7333C30.5 32.962 30.9876 34.0516 31.8834 34.9261C34.1716 37.1649 38.0238 37.1035 40.2362 34.7888C41.271 33.7046 41.6828 32.3639 41.7424 30.8714Z" fill="white"></path><path d="M23.8104 11.8372C22.7791 11.8372 22.0477 11.109 22.0531 10.0881C22.0567 9.1015 22.781 8.41125 23.8122 8.41125C24.8344 8.41125 25.5748 9.11596 25.5748 10.0881C25.5748 11.109 24.8416 11.8372 23.8122 11.8372H23.8104ZM23.8086 11.2337C24.4389 11.2409 24.8994 10.7729 24.903 10.1206C24.9066 9.47192 24.4642 9.00754 23.8411 9.00031C23.1765 8.99309 22.7304 9.43036 22.7214 10.0989C22.7123 10.7657 23.1512 11.2246 23.8086 11.2337Z" fill="white"></path><path d="M17.9138 22.1909C16.8736 22.1909 16.227 21.7374 16.0175 20.9875C15.7882 20.1635 16.1331 19.3287 16.8519 18.9746C17.6502 18.5807 18.6778 18.7794 19.1528 19.4462C19.5663 20.0244 19.5898 20.664 19.2936 21.2929C18.9884 21.9379 18.4123 22.1692 17.9138 22.1891V22.1909ZM18.8295 20.4996C18.8349 19.8509 18.3942 19.4082 17.735 19.3956C17.0813 19.3847 16.6135 19.8274 16.6081 20.4671C16.6027 21.1284 17.0397 21.5675 17.7134 21.5802C18.3617 21.5928 18.8259 21.1447 18.8295 20.4996Z" fill="white"></path><path d="M11.656 32.6187C10.6283 32.6187 9.89511 31.8814 9.90414 30.8587C9.91317 29.8378 10.6609 29.0879 11.665 29.0951C12.6457 29.1006 13.359 29.8559 13.35 30.8768C13.341 31.9067 12.6475 32.6187 11.656 32.6187ZM10.5561 30.8515C10.5507 31.5273 10.9805 31.9736 11.6451 31.979C12.261 31.9862 12.7161 31.52 12.7251 30.8732C12.736 30.2299 12.2899 29.7565 11.6668 29.7511C10.9968 29.7438 10.5597 30.1757 10.5561 30.8515Z" fill="white"></path><path d="M29.9093 22.2523C28.8962 22.2523 28.1701 21.5079 28.1756 20.4761C28.181 19.4534 28.9142 18.7234 29.9364 18.7252C30.9207 18.727 31.6269 19.4715 31.6196 20.5014C31.6124 21.5295 30.9063 22.2523 29.9093 22.2505V22.2523ZM31.0092 20.4978C31.0092 19.8401 30.574 19.4064 29.9075 19.4064C29.2447 19.4064 28.7932 19.8437 28.7932 20.4888C28.7932 21.1284 29.2339 21.5639 29.8877 21.5711C30.5505 21.5783 31.0074 21.1411 31.0092 20.496V20.4978Z" fill="white"></path><path d="M23.7761 29.1476C25.5117 29.2 25.8837 30.763 25.378 31.7062C25.0223 32.3693 24.4064 32.5988 23.6894 32.5717C22.3584 32.5211 21.5908 31.0864 22.2844 29.948C22.6347 29.3734 23.1874 29.1602 23.7761 29.1458V29.1476ZM24.8958 30.8659C24.8977 30.2173 24.457 29.7565 23.8285 29.7529C23.1729 29.7475 22.7178 30.2046 22.7232 30.8678C22.7268 31.5201 23.1837 31.9826 23.8213 31.9754C24.4516 31.9682 24.894 31.5128 24.8958 30.8659Z" fill="white"></path><path d="M36.149 29.1476C36.7234 29.1801 37.3211 29.4312 37.6101 30.1233C37.8864 30.7846 37.8395 31.4406 37.3573 32.0079C36.7848 32.6801 35.6217 32.7723 34.8722 32.223C34.204 31.7333 34.0161 30.6889 34.464 29.948C34.7711 29.4385 35.3508 29.1403 36.1508 29.1476H36.149ZM34.8884 30.8587C34.8776 31.4821 35.3255 31.9266 35.9829 31.9429C36.624 31.9591 37.0846 31.5219 37.099 30.884C37.1134 30.2516 36.6782 29.7999 36.0461 29.789C35.3418 29.7782 34.8993 30.1865 34.8884 30.8587Z" fill="white"></path><path d="M62.0816 35.058C61.6716 35.058 61.3284 34.9189 61.0485 34.6388C60.7686 34.3587 60.6295 34.0154 60.6295 33.6052V14.7012C60.6295 14.2729 60.7686 13.9242 61.0485 13.6531C61.3284 13.3839 61.6716 13.2484 62.0816 13.2484H74.6965C75.1246 13.2484 75.4677 13.3749 75.7296 13.626C75.9896 13.8772 76.1197 14.2079 76.1197 14.618C76.1197 15.0282 75.9896 15.3263 75.7296 15.5667C75.4695 15.8088 75.1246 15.9299 74.6965 15.9299H63.5318V22.7149H71.5414C71.9695 22.7149 72.3126 22.8414 72.5745 23.0925C72.8345 23.3437 72.9646 23.6653 72.9646 24.0556C72.9646 24.4459 72.8345 24.7675 72.5745 25.0187C72.3144 25.2699 71.9695 25.3964 71.5414 25.3964H63.5318V32.3765H74.6965C75.1246 32.3765 75.4677 32.4976 75.7296 32.7397C75.9896 32.9818 76.1197 33.2981 76.1197 33.6884C76.1197 34.0786 75.9896 34.4292 75.7296 34.6804C75.4695 34.9315 75.1246 35.058 74.6965 35.058H62.0816Z" fill="white"></path><path d="M74.6966 35.1863H62.0816C61.6391 35.1863 61.2599 35.0327 60.9583 34.7292C60.6549 34.4256 60.5013 34.048 60.5013 33.6053V14.7012C60.5013 14.2386 60.6549 13.8555 60.9583 13.561C61.2617 13.2683 61.6391 13.1201 62.0798 13.1201H74.6948C75.1553 13.1201 75.5328 13.2593 75.8163 13.5321C76.1017 13.8067 76.2461 14.1717 76.2461 14.6163C76.2461 15.0608 76.0999 15.3932 75.8145 15.6607C75.531 15.9245 75.1535 16.0582 74.6948 16.0582H63.6601V22.5866H71.5415C72.002 22.5866 72.3795 22.7257 72.663 22.9986C72.9484 23.2751 73.0928 23.6292 73.0928 24.0538C73.0928 24.4785 72.9484 24.8344 72.663 25.1091C72.3777 25.3837 72.002 25.5229 71.5415 25.5229H63.6601V32.2465H74.6948C75.1535 32.2465 75.531 32.3802 75.8145 32.644C76.1017 32.9096 76.2461 33.2619 76.2461 33.6884C76.2461 34.1148 76.1017 34.4961 75.8163 34.7725C75.5328 35.0472 75.1553 35.1845 74.6948 35.1845L74.6966 35.1863ZM62.0816 13.3785C61.7041 13.3785 61.3953 13.4996 61.1389 13.7471C60.8842 13.9947 60.7596 14.3073 60.7596 14.7012V33.6053C60.7596 33.9829 60.8842 34.2901 61.1407 34.5467C61.3971 34.8033 61.7041 34.9279 62.0834 34.9279H74.6984C75.0957 34.9279 75.4045 34.8159 75.6411 34.5864C75.8777 34.3587 75.9933 34.0642 75.9933 33.6884C75.9933 33.3324 75.8795 33.0523 75.6429 32.8337C75.4045 32.6133 75.0957 32.5048 74.6984 32.5048H63.4054V25.2663H71.5433C71.9406 25.2663 72.2494 25.1543 72.4878 24.9248C72.7244 24.6971 72.8382 24.4116 72.8382 24.0538C72.8382 23.6961 72.7226 23.4106 72.486 23.1829C72.2476 22.9534 71.9388 22.8414 71.5433 22.8414H63.4054V15.7998H74.6984C75.0957 15.7998 75.4045 15.6932 75.6429 15.4709C75.8777 15.2523 75.9933 14.9722 75.9933 14.6163C75.9933 14.2404 75.8777 13.9459 75.6411 13.7182C75.4027 13.4887 75.0939 13.3767 74.6984 13.3767H62.0834L62.0816 13.3785Z" fill="white"></path><path d="M81.5901 35.058C81.1802 35.058 80.8406 34.9189 80.5715 34.6388C80.3024 34.3587 80.167 34.0154 80.167 33.6052V14.7012C80.167 14.2729 80.3024 13.9242 80.5715 13.6531C80.8406 13.3839 81.1802 13.2484 81.5901 13.2484C82.0362 13.2484 82.4082 13.4255 82.7062 13.7796L94.8751 29.9751V14.7012C94.8751 14.2729 95.0142 13.9242 95.2941 13.6531C95.5741 13.3839 95.9172 13.2484 96.3272 13.2484C96.7371 13.2484 97.0983 13.3839 97.3602 13.6531C97.6203 13.9224 97.7503 14.2729 97.7503 14.7012V33.6052C97.7503 34.0154 97.6203 34.3587 97.3602 34.6388C97.1001 34.9189 96.7552 35.058 96.3272 35.058C96.1411 35.058 95.9407 35.0164 95.7276 34.9315C95.5127 34.8484 95.3411 34.7219 95.2111 34.5539L83.0422 18.3584V33.6052C83.0422 34.0154 82.9067 34.3587 82.6376 34.6388C82.3685 34.9189 82.0181 35.058 81.5901 35.058Z" fill="white"></path><path d="M96.3254 35.1863C96.1231 35.1863 95.9064 35.1411 95.6788 35.0526C95.4441 34.9604 95.2508 34.8195 95.1081 34.6352L83.1686 18.7451V33.6071C83.1686 34.048 83.0205 34.4256 82.7279 34.7292C82.4336 35.0327 82.0507 35.1863 81.5883 35.1863C81.126 35.1863 80.7702 35.0327 80.4776 34.7292C80.1851 34.4274 80.037 34.0498 80.037 33.6071V14.703C80.037 14.2422 80.1851 13.8591 80.4795 13.5646C80.7738 13.2701 81.1459 13.1219 81.5883 13.1219C82.0724 13.1219 82.4805 13.3153 82.8038 13.6983L94.7451 29.5921V14.703C94.7451 14.2404 94.8986 13.8573 95.2021 13.5628C95.5055 13.2701 95.8829 13.1219 96.3236 13.1219C96.7642 13.1219 97.1634 13.2719 97.4487 13.5664C97.7323 13.861 97.8749 14.2422 97.8749 14.703V33.6071C97.8749 34.048 97.7323 34.4256 97.4505 34.7274C97.1652 35.0327 96.7859 35.1863 96.3236 35.1863H96.3254ZM82.9122 17.9753L95.3122 34.478C95.426 34.6244 95.5813 34.7382 95.7727 34.8123C95.9714 34.89 96.1574 34.9297 96.3272 34.9297C96.7209 34.9297 97.0279 34.8069 97.2663 34.5521C97.5065 34.2955 97.6221 33.9865 97.6221 33.6071V14.703C97.6221 14.3055 97.5065 13.9929 97.2681 13.7453C97.0297 13.4996 96.7227 13.3803 96.3272 13.3803C95.9317 13.3803 95.6409 13.5014 95.3845 13.7489C95.1298 13.9965 95.0052 14.3073 95.0052 14.703V30.3618L82.6051 13.8591C82.3342 13.5393 82.0019 13.3803 81.592 13.3803C81.2145 13.3803 80.9111 13.4996 80.6637 13.7471C80.4162 13.9947 80.297 14.3073 80.297 14.703V33.6071C80.297 33.9847 80.4181 34.2937 80.6655 34.5503C80.9111 34.8051 81.2145 34.9297 81.592 34.9297C81.9875 34.9297 82.2999 34.8051 82.5455 34.5503C82.793 34.2937 82.914 33.9847 82.914 33.6071V17.9753H82.9122Z" fill="white"></path><path d="M113.407 35.3381C111.769 35.3381 110.271 35.0634 108.913 34.5141C107.555 33.9648 106.387 33.1933 105.411 32.1958C104.434 31.2002 103.676 30.0185 103.138 28.6488C102.598 27.281 102.328 25.7776 102.328 24.1388C102.328 22.4999 102.598 21.0019 103.138 19.6431C103.678 18.2843 104.436 17.1062 105.411 16.1106C106.388 15.115 107.555 14.3416 108.913 13.7923C110.271 13.243 111.769 12.9683 113.407 12.9683C115.045 12.9683 116.536 13.243 117.885 13.7923C119.235 14.3416 120.401 15.115 121.387 16.1106C122.373 17.1062 123.136 18.2843 123.676 19.6431C124.216 21.0019 124.485 22.5017 124.485 24.1388C124.485 25.7758 124.216 27.281 123.676 28.6488C123.136 30.0167 122.373 31.2002 121.387 32.1958C120.401 33.1915 119.233 33.9648 117.885 34.5141C116.536 35.0634 115.043 35.3381 113.407 35.3381ZM113.407 32.7126C114.617 32.7126 115.727 32.494 116.742 32.0567C117.755 31.6194 118.635 31.0141 119.379 30.2407C120.123 29.4692 120.696 28.5603 121.095 27.5177C121.494 26.4751 121.694 25.3494 121.694 24.1388C121.694 22.9281 121.494 21.8024 121.095 20.7598C120.694 19.7172 120.123 18.8101 119.379 18.0368C118.635 17.2652 117.755 16.6635 116.742 16.2352C115.727 15.807 114.617 15.5938 113.407 15.5938C112.197 15.5938 111.086 15.8088 110.071 16.2352C109.056 16.6635 108.182 17.2634 107.447 18.0368C106.712 18.8101 106.139 19.7172 105.731 20.7598C105.321 21.8024 105.117 22.9281 105.117 24.1388C105.117 25.3494 105.321 26.4751 105.731 27.5177C106.139 28.5603 106.712 29.4674 107.447 30.2407C108.182 31.0141 109.056 31.6194 110.071 32.0567C111.084 32.494 112.197 32.7126 113.407 32.7126Z" fill="white"></path><path d="M113.407 35.4664C111.761 35.4664 110.233 35.1863 108.864 34.6334C107.496 34.0805 106.304 33.2909 105.319 32.2862C104.335 31.2815 103.56 30.0745 103.017 28.6976C102.473 27.3226 102.198 25.7885 102.198 24.1406C102.198 22.4927 102.473 20.964 103.017 19.598C103.56 18.2301 104.335 17.0267 105.319 16.0239C106.304 15.0192 107.497 14.2296 108.864 13.6767C110.232 13.1237 111.76 12.8437 113.407 12.8437C115.054 12.8437 116.576 13.1237 117.934 13.6767C119.292 14.2296 120.486 15.0192 121.479 16.022C122.473 17.0249 123.251 18.2283 123.797 19.598C124.34 20.9658 124.615 22.4945 124.615 24.1406C124.615 25.7867 124.34 27.3208 123.797 28.6976C123.253 30.0763 122.473 31.2834 121.479 32.2862C120.486 33.2909 119.292 34.0787 117.934 34.6316C116.574 35.1845 115.052 35.4646 113.407 35.4646V35.4664ZM113.407 13.1002C111.794 13.1002 110.298 13.3749 108.962 13.9152C107.627 14.4554 106.462 15.2252 105.503 16.2045C104.543 17.1839 103.788 18.3584 103.257 19.6937C102.726 21.0308 102.457 22.527 102.457 24.1424C102.457 25.7578 102.726 27.2593 103.257 28.6055C103.788 29.9517 104.543 31.1298 105.503 32.1091C106.464 33.0885 107.627 33.8582 108.962 34.3985C110.298 34.9388 111.794 35.2134 113.407 35.2134C115.019 35.2134 116.509 34.9388 117.839 34.3985C119.164 33.8582 120.329 33.0885 121.299 32.1091C122.267 31.1316 123.029 29.9517 123.56 28.6055C124.091 27.2575 124.36 25.756 124.36 24.1424C124.36 22.5288 124.091 21.0327 123.56 19.6937C123.029 18.3566 122.269 17.1821 121.299 16.2045C120.329 15.2252 119.166 14.4554 117.839 13.9152C116.511 13.3749 115.019 13.1002 113.407 13.1002ZM113.407 32.8427C112.184 32.8427 111.044 32.6187 110.02 32.176C108.995 31.7351 108.099 31.1135 107.355 30.3311C106.612 29.5505 106.025 28.6199 105.612 27.5665C105.198 26.5149 104.989 25.3621 104.989 24.1406C104.989 22.9191 105.198 21.7681 105.612 20.7146C106.025 19.6612 106.612 18.7306 107.355 17.95C108.099 17.1676 108.996 16.5515 110.02 16.1196C111.046 15.686 112.184 15.4673 113.405 15.4673C114.626 15.4673 115.763 15.686 116.789 16.1196C117.815 16.5533 118.716 17.1694 119.469 17.95C120.222 18.7324 120.808 19.6612 121.212 20.7164C121.617 21.7699 121.821 22.9227 121.821 24.1406C121.821 25.3584 121.617 26.5131 121.212 27.5647C120.808 28.6181 120.221 29.5487 119.469 30.3311C118.716 31.1135 117.815 31.7333 116.791 32.1742C115.765 32.6169 114.626 32.8409 113.405 32.8409L113.407 32.8427ZM113.407 15.7257C112.22 15.7257 111.115 15.9389 110.121 16.3581C109.128 16.7773 108.261 17.3736 107.541 18.1289C106.82 18.886 106.251 19.7877 105.85 20.8104C105.449 21.8331 105.245 22.9534 105.245 24.1424C105.245 25.3313 105.449 26.4516 105.85 27.4744C106.251 28.4971 106.82 29.3987 107.541 30.1558C108.259 30.9129 109.128 31.5128 110.121 31.9411C111.113 32.3693 112.218 32.5862 113.407 32.5862C114.595 32.5862 115.698 32.3693 116.692 31.9411C117.685 31.5128 118.559 30.9111 119.287 30.154C120.015 29.3969 120.584 28.4971 120.976 27.4744C121.367 26.4516 121.568 25.3295 121.568 24.1424C121.568 22.9552 121.369 21.8331 120.976 20.8104C120.584 19.7895 120.015 18.8878 119.287 18.1307C118.559 17.3754 117.685 16.7791 116.692 16.3581C115.698 15.9389 114.593 15.7257 113.407 15.7257Z" fill="white"></path></g><defs><clipPath id="clip0_17_230"><rect width="124.615" height="47" fill="white"></rect></clipPath></defs></svg>